<?xml version="1.0" encoding="UTF-8" standalone="no"?>
<!DOCTYPE svg PUBLIC "-//W3C//DTD SVG 1.1//EN"
 "http://www.w3.org/Graphics/SVG/1.1/DTD/svg11.dtd">
<!-- Generated by graphviz version 2.36.0 (20140111.2315)
 -->
<!-- Title: Exception Pages: 1 -->
<svg width="406pt" height="84pt"
 viewBox="0.00 0.00 406.00 84.00" xmlns="http://www.w3.org/2000/svg" xmlns:xlink="http://www.w3.org/1999/xlink">
<g id="graph0" class="graph" transform="scale(1 1) rotate(0) translate(4 80)">
<title>Exception</title>
<polygon fill="white" stroke="none" points="-4,4 -4,-80 402,-80 402,4 -4,4"/>
<!-- Node1 -->
<g id="node1" class="node"><title>Node1</title>
<polygon fill="#bfbfbf" stroke="black" points="146,-56.5 146,-75.5 206,-75.5 206,-56.5 146,-56.5"/>
<text text-anchor="middle" x="176" y="-63.5" font-family="Helvetica,sans-Serif" font-size="10.00">Exception</text>
</g>
<!-- Node2 -->
<g id="node2" class="node"><title>Node2</title>
<g id="a_node2"><a xlink:href="classIBP_1_1LexerException.html" target="_top" xlink:title="Represents errors that occur during lexical analysis. ">
<polygon fill="white" stroke="black" points="0,-0.5 0,-19.5 104,-19.5 104,-0.5 0,-0.5"/>
<text text-anchor="middle" x="52" y="-7.5" font-family="Helvetica,sans-Serif" font-size="10.00">IBP.LexerException</text>
</a>
</g>
</g>
<!-- Node1&#45;&gt;Node2 -->
<g id="edge1" class="edge"><title>Node1&#45;&gt;Node2</title>
<path fill="none" stroke="midnightblue" d="M146.993,-52.3678C123.771,-42.2553 91.8375,-28.3486 71.5562,-19.5164"/>
<polygon fill="midnightblue" stroke="midnightblue" points="145.786,-55.6597 156.352,-56.4435 148.581,-49.2419 145.786,-55.6597"/>
</g>
<!-- Node3 -->
<g id="node3" class="node"><title>Node3</title>
<g id="a_node3"><a xlink:href="classIBP_1_1ParserException.html" target="_top" xlink:title="Represents errors that occur during syntactical analysis. ">
<polygon fill="white" stroke="black" points="122,-0.5 122,-19.5 230,-19.5 230,-0.5 122,-0.5"/>
<text text-anchor="middle" x="176" y="-7.5" font-family="Helvetica,sans-Serif" font-size="10.00">IBP.ParserException</text>
</a>
</g>
</g>
<!-- Node1&#45;&gt;Node3 -->
<g id="edge2" class="edge"><title>Node1&#45;&gt;Node3</title>
<path fill="none" stroke="midnightblue" d="M176,-45.8045C176,-36.9102 176,-26.7798 176,-19.7511"/>
<polygon fill="midnightblue" stroke="midnightblue" points="172.5,-46.083 176,-56.083 179.5,-46.083 172.5,-46.083"/>
</g>
<!-- Node4 -->
<g id="node4" class="node"><title>Node4</title>
<g id="a_node4"><a xlink:href="classIBP_1_1PCPAValidationException.html" target="_top" xlink:title="Represents errors that occur during the validation of a XML configuration file for a parallel communi...">
<polygon fill="white" stroke="black" points="248,-0.5 248,-19.5 398,-19.5 398,-0.5 248,-0.5"/>
<text text-anchor="middle" x="323" y="-7.5" font-family="Helvetica,sans-Serif" font-size="10.00">IBP.PCPAValidationException</text>
</a>
</g>
</g>
<!-- Node1&#45;&gt;Node4 -->
<g id="edge3" class="edge"><title>Node1&#45;&gt;Node4</title>
<path fill="none" stroke="midnightblue" d="M208.923,-52.9058C236.56,-42.7536 275.344,-28.5063 299.816,-19.5164"/>
<polygon fill="midnightblue" stroke="midnightblue" points="207.472,-49.71 199.293,-56.4435 209.886,-56.2806 207.472,-49.71"/>
</g>
</g>
</svg>
