<?xml version="1.0" encoding="UTF-8" standalone="no"?>
<!DOCTYPE svg PUBLIC "-//W3C//DTD SVG 1.1//EN"
 "http://www.w3.org/Graphics/SVG/1.1/DTD/svg11.dtd">
<!-- Generated by graphviz version 2.36.0 (20140111.2315)
 -->
<!-- Title: IBP.PAConfiguration Pages: 1 -->
<svg width="241pt" height="84pt"
 viewBox="0.00 0.00 241.00 84.00" xmlns="http://www.w3.org/2000/svg" xmlns:xlink="http://www.w3.org/1999/xlink">
<g id="graph0" class="graph" transform="scale(1 1) rotate(0) translate(4 80)">
<title>IBP.PAConfiguration</title>
<polygon fill="white" stroke="none" points="-4,4 -4,-80 237,-80 237,4 -4,4"/>
<!-- Node1 -->
<g id="node1" class="node"><title>Node1</title>
<polygon fill="#bfbfbf" stroke="black" points="85.5,-0.5 85.5,-19.5 192.5,-19.5 192.5,-0.5 85.5,-0.5"/>
<text text-anchor="middle" x="139" y="-7.5" font-family="Helvetica,sans-Serif" font-size="10.00">IBP.PAConfiguration</text>
</g>
<!-- Node2 -->
<g id="node2" class="node"><title>Node2</title>
<g id="a_node2"><a xlink:href="classIEquatable_3_01PAConfiguration_01_4.html" target="_top" xlink:title="IEquatable\&lt; PAConfiguration \&gt;">
<polygon fill="white" stroke="black" points="0,-56.5 0,-75.5 152,-75.5 152,-56.5 0,-56.5"/>
<text text-anchor="middle" x="76" y="-63.5" font-family="Helvetica,sans-Serif" font-size="10.00">IEquatable&lt; PAConfiguration &gt;</text>
</a>
</g>
</g>
<!-- Node2&#45;&gt;Node1 -->
<g id="edge1" class="edge"><title>Node2&#45;&gt;Node1</title>
<path fill="none" stroke="midnightblue" d="M94.0399,-49.5372C105.273,-39.9087 119.319,-27.8694 128.694,-19.8339"/>
<polygon fill="midnightblue" stroke="midnightblue" points="91.4368,-47.1586 86.122,-56.324 95.9924,-52.4734 91.4368,-47.1586"/>
</g>
<!-- Node3 -->
<g id="node3" class="node"><title>Node3</title>
<g id="a_node3"><a xlink:href="classICloneable.html" target="_top" xlink:title="ICloneable">
<polygon fill="white" stroke="black" points="170.5,-56.5 170.5,-75.5 233.5,-75.5 233.5,-56.5 170.5,-56.5"/>
<text text-anchor="middle" x="202" y="-63.5" font-family="Helvetica,sans-Serif" font-size="10.00">ICloneable</text>
</a>
</g>
</g>
<!-- Node3&#45;&gt;Node1 -->
<g id="edge2" class="edge"><title>Node3&#45;&gt;Node1</title>
<path fill="none" stroke="midnightblue" d="M183.96,-49.5372C172.727,-39.9087 158.681,-27.8694 149.306,-19.8339"/>
<polygon fill="midnightblue" stroke="midnightblue" points="182.008,-52.4734 191.878,-56.324 186.563,-47.1586 182.008,-52.4734"/>
</g>
</g>
</svg>
