<?xml version="1.0" encoding="UTF-8" standalone="no"?>
<!DOCTYPE svg PUBLIC "-//W3C//DTD SVG 1.1//EN"
 "http://www.w3.org/Graphics/SVG/1.1/DTD/svg11.dtd">
<!-- Generated by graphviz version 2.36.0 (20140111.2315)
 -->
<!-- Title: Graphical Class Hierarchy Pages: 1 -->
<svg width="254pt" height="104pt"
 viewBox="0.00 0.00 254.00 104.00" xmlns="http://www.w3.org/2000/svg" xmlns:xlink="http://www.w3.org/1999/xlink">
<g id="graph0" class="graph" transform="scale(1 1) rotate(0) translate(4 100)">
<title>Graphical Class Hierarchy</title>
<polygon fill="white" stroke="none" points="-4,4 -4,-100 250,-100 250,4 -4,4"/>
<!-- Node1 -->
<g id="node1" class="node"><title>Node1</title>
<polygon fill="white" stroke="#bfbfbf" points="0,-38.5 0,-57.5 60,-57.5 60,-38.5 0,-38.5"/>
<text text-anchor="middle" x="30" y="-45.5" font-family="Helvetica,sans-Serif" font-size="10.00">Exception</text>
</g>
<!-- Node2 -->
<g id="node2" class="node"><title>Node2</title>
<g id="a_node2"><a xlink:href="classIBP_1_1LexerException.html" target="_top" xlink:title="Represents errors that occur during lexical analysis. ">
<polygon fill="white" stroke="black" points="119,-76.5 119,-95.5 223,-95.5 223,-76.5 119,-76.5"/>
<text text-anchor="middle" x="171" y="-83.5" font-family="Helvetica,sans-Serif" font-size="10.00">IBP.LexerException</text>
</a>
</g>
</g>
<!-- Node1&#45;&gt;Node2 -->
<g id="edge1" class="edge"><title>Node1&#45;&gt;Node2</title>
<path fill="none" stroke="midnightblue" d="M69.866,-59.5884C78.4575,-62.0865 87.5251,-64.674 96,-67 107.64,-70.1946 120.355,-73.5188 131.91,-76.4768"/>
<polygon fill="midnightblue" stroke="midnightblue" points="70.6435,-56.1692 60.0629,-56.718 68.6764,-62.8871 70.6435,-56.1692"/>
</g>
<!-- Node3 -->
<g id="node3" class="node"><title>Node3</title>
<g id="a_node3"><a xlink:href="classIBP_1_1ParserException.html" target="_top" xlink:title="Represents errors that occur during syntactical analysis. ">
<polygon fill="white" stroke="black" points="117,-38.5 117,-57.5 225,-57.5 225,-38.5 117,-38.5"/>
<text text-anchor="middle" x="171" y="-45.5" font-family="Helvetica,sans-Serif" font-size="10.00">IBP.ParserException</text>
</a>
</g>
</g>
<!-- Node1&#45;&gt;Node3 -->
<g id="edge2" class="edge"><title>Node1&#45;&gt;Node3</title>
<path fill="none" stroke="midnightblue" d="M70.2257,-48C84.6693,-48 101.281,-48 116.754,-48"/>
<polygon fill="midnightblue" stroke="midnightblue" points="70.139,-44.5001 60.139,-48 70.1389,-51.5001 70.139,-44.5001"/>
</g>
<!-- Node4 -->
<g id="node4" class="node"><title>Node4</title>
<g id="a_node4"><a xlink:href="classIBP_1_1PCPAValidationException.html" target="_top" xlink:title="Represents errors that occur during the validation of a XML configuration file for a parallel communi...">
<polygon fill="white" stroke="black" points="96,-0.5 96,-19.5 246,-19.5 246,-0.5 96,-0.5"/>
<text text-anchor="middle" x="171" y="-7.5" font-family="Helvetica,sans-Serif" font-size="10.00">IBP.PCPAValidationException</text>
</a>
</g>
</g>
<!-- Node1&#45;&gt;Node4 -->
<g id="edge3" class="edge"><title>Node1&#45;&gt;Node4</title>
<path fill="none" stroke="midnightblue" d="M69.866,-36.4116C78.4575,-33.9135 87.5251,-31.326 96,-29 107.64,-25.8054 120.355,-22.4812 131.91,-19.5232"/>
<polygon fill="midnightblue" stroke="midnightblue" points="68.6764,-33.1129 60.0629,-39.282 70.6435,-39.8308 68.6764,-33.1129"/>
</g>
</g>
</svg>
