<?xml version="1.0" encoding="UTF-8" standalone="no"?>
<!DOCTYPE svg PUBLIC "-//W3C//DTD SVG 1.1//EN"
 "http://www.w3.org/Graphics/SVG/1.1/DTD/svg11.dtd">
<!-- Generated by graphviz version 2.36.0 (20140111.2315)
 -->
<!-- Title: Graphical Class Hierarchy Pages: 1 -->
<svg width="304pt" height="66pt"
 viewBox="0.00 0.00 304.00 66.00" xmlns="http://www.w3.org/2000/svg" xmlns:xlink="http://www.w3.org/1999/xlink">
<g id="graph0" class="graph" transform="scale(1 1) rotate(0) translate(4 62)">
<title>Graphical Class Hierarchy</title>
<polygon fill="white" stroke="none" points="-4,4 -4,-62 300,-62 300,4 -4,4"/>
<!-- Node1 -->
<g id="node1" class="node"><title>Node1</title>
<polygon fill="white" stroke="#bfbfbf" points="44.5,-38.5 44.5,-57.5 107.5,-57.5 107.5,-38.5 44.5,-38.5"/>
<text text-anchor="middle" x="76" y="-45.5" font-family="Helvetica,sans-Serif" font-size="10.00">ICloneable</text>
</g>
<!-- Node2 -->
<g id="node2" class="node"><title>Node2</title>
<g id="a_node2"><a xlink:href="classIBP_1_1PAConfiguration.html" target="_top" xlink:title="Represents a configuration of a pushdown automaton. ">
<polygon fill="white" stroke="black" points="188.5,-19.5 188.5,-38.5 295.5,-38.5 295.5,-19.5 188.5,-19.5"/>
<text text-anchor="middle" x="242" y="-26.5" font-family="Helvetica,sans-Serif" font-size="10.00">IBP.PAConfiguration</text>
</a>
</g>
</g>
<!-- Node1&#45;&gt;Node2 -->
<g id="edge1" class="edge"><title>Node1&#45;&gt;Node2</title>
<path fill="none" stroke="midnightblue" d="M117.875,-43.2645C139.197,-40.7942 165.525,-37.7441 188.355,-35.0991"/>
<polygon fill="midnightblue" stroke="midnightblue" points="117.378,-39.7986 107.847,-44.4262 118.184,-46.7521 117.378,-39.7986"/>
</g>
<!-- Node3 -->
<g id="node3" class="node"><title>Node3</title>
<polygon fill="white" stroke="#bfbfbf" points="0,-0.5 0,-19.5 152,-19.5 152,-0.5 0,-0.5"/>
<text text-anchor="middle" x="76" y="-7.5" font-family="Helvetica,sans-Serif" font-size="10.00">IEquatable&lt; PAConfiguration &gt;</text>
</g>
<!-- Node3&#45;&gt;Node2 -->
<g id="edge2" class="edge"><title>Node3&#45;&gt;Node2</title>
<path fill="none" stroke="midnightblue" d="M162.249,-19.8764C171.079,-20.8994 179.859,-21.9166 188.178,-22.8804"/>
<polygon fill="midnightblue" stroke="midnightblue" points="162.617,-16.3957 152.28,-18.7215 161.811,-23.3492 162.617,-16.3957"/>
</g>
</g>
</svg>
